<?xml version="1.0" standalone="no"?>
<!DOCTYPE svg PUBLIC "-//W3C//DTD SVG 20010904//EN"
 "http://www.w3.org/TR/2001/REC-SVG-20010904/DTD/svg10.dtd">
<svg version="1.0" xmlns="http://www.w3.org/2000/svg"
 width="1248.000000pt" height="1248.000000pt" viewBox="0 0 1248.000000 1248.000000"
 preserveAspectRatio="xMidYMid meet">
<metadata>
Created by potrace 1.16, written by Peter Selinger 2001-2019
</metadata>
<g transform="translate(0.000000,1248.000000) scale(0.100000,-0.100000)"
fill="#000000" stroke="none">
<path d="M6025 12050 c-710 -33 -1385 -185 -2020 -455 -1263 -535 -2361 -1596
-2971 -2870 -318 -665 -497 -1332 -555 -2065 -14 -185 -14 -621 1 -815 80
-1066 457 -2074 1113 -2980 127 -175 259 -335 276 -335 29 1 211 36 217 42 3
4 -8 58 -25 122 -40 149 -40 174 2 213 113 108 519 235 1001 314 100 16 184
31 189 32 4 1 -27 40 -68 87 -630 704 -1005 1496 -1114 2351 -65 507 -44 990
65 1482 171 771 546 1462 1104 2031 191 195 328 316 527 465 562 422 1189 682
1899 791 224 34 391 43 689 37 279 -5 383 -15 625 -58 867 -153 1733 -644
2343 -1326 407 -457 702 -963 888 -1523 157 -476 222 -867 222 -1350 0 -272
-10 -402 -48 -652 -60 -392 -158 -721 -326 -1097 -161 -361 -430 -772 -717
-1096 -140 -157 -134 -141 -49 -155 483 -77 813 -163 1011 -262 86 -43 133
-79 146 -115 6 -15 -2 -62 -26 -153 -20 -73 -32 -136 -27 -140 4 -4 57 -15
117 -25 91 -14 110 -15 121 -3 63 68 280 361 402 543 480 718 790 1522 912
2370 70 484 75 1030 15 1505 -211 1673 -1199 3241 -2634 4183 -973 638 -2152
961 -3305 907z m269 -426 c15 -109 11 -114 -83 -114 -32 0 -99 -3 -149 -6
l-92 -7 0 -56 c0 -86 -3 -84 157 -76 l141 7 4 -68 c3 -38 4 -70 4 -71 -1 -1
-44 -5 -96 -8 -52 -3 -117 -8 -145 -11 l-50 -5 3 -75 4 -76 131 6 c73 4 148 9
168 12 35 5 36 4 42 -33 4 -21 7 -55 7 -75 0 -36 -1 -37 -42 -42 -64 -8 -469
-29 -473 -24 -6 6 -50 726 -45 732 3 2 111 11 240 19 129 8 242 15 251 16 12
1 18 -11 23 -45z m470 16 c197 -19 302 -64 372 -159 50 -68 68 -137 62 -243
-5 -73 -11 -100 -37 -152 -56 -113 -156 -181 -286 -191 -43 -4 -126 1 -215 13
l-145 18 2 30 c6 69 75 680 78 692 3 7 14 11 27 8 13 -3 77 -10 142 -16z m832
-148 l82 -27 -54 -175 c-91 -292 -95 -309 -84 -351 18 -65 106 -112 167 -88
59 22 71 44 149 288 42 130 78 238 79 240 6 6 165 -50 165 -58 0 -25 -146
-463 -166 -498 -32 -55 -98 -111 -148 -124 -65 -18 -183 -7 -247 23 -119 54
-179 140 -179 258 0 52 14 111 72 303 39 130 74 237 77 236 3 0 43 -13 87 -27z
m-2528 -7 c24 -4 46 -13 49 -21 3 -8 -1 -44 -8 -80 -12 -59 -15 -65 -33 -59
-47 14 -145 17 -180 5 -69 -22 -87 -95 -29 -119 16 -6 73 -15 129 -20 55 -5
120 -15 144 -22 117 -35 176 -187 117 -300 -60 -114 -244 -181 -411 -149 -37
7 -69 17 -72 22 -8 12 16 137 27 144 5 2 28 0 51 -7 62 -16 161 -13 202 6 51
25 67 95 26 120 -7 4 -70 13 -142 21 -154 16 -214 42 -253 108 -88 154 17 320
225 355 54 9 74 9 158 -4z m-575 -519 c81 -178 147 -328 147 -332 0 -8 -136
-74 -153 -74 -4 0 -107 61 -228 136 -122 74 -222 134 -224 132 -1 -2 37 -88
86 -193 49 -104 89 -195 89 -201 0 -12 -147 -80 -155 -72 -4 4 -190 406 -281
605 l-24 53 71 36 c45 22 79 33 93 30 11 -3 116 -64 231 -135 116 -71 211
-127 213 -126 2 2 -36 89 -83 194 -48 105 -85 196 -83 202 3 10 124 68 143 69
6 0 77 -146 158 -324z m4179 102 c75 -34 151 -106 188 -177 12 -24 20 -44 18
-45 -18 -13 -120 -66 -126 -66 -5 0 -14 11 -20 24 -20 45 -83 105 -128 122
-92 35 -183 -6 -240 -111 -98 -177 -6 -336 189 -323 l64 4 6 -70 c3 -38 4 -73
2 -77 -9 -14 -112 -20 -165 -8 -179 37 -304 168 -317 332 -9 110 42 243 125
326 111 111 257 136 404 69z m-4983 -512 c106 -169 191 -309 189 -311 -22 -16
-151 -95 -153 -93 -2 4 -238 384 -319 515 -31 50 -56 95 -56 101 0 8 142 104
146 99 1 -1 87 -141 193 -311z m5729 21 c34 -27 62 -51 62 -53 0 -9 -212 -749
-215 -753 -3 -2 -37 22 -77 54 -40 32 -74 59 -76 60 -1 1 7 28 18 60 11 32 20
64 20 71 0 11 -153 141 -196 166 -6 4 -37 -11 -69 -32 -66 -44 -59 -45 -153
28 l-62 49 172 107 c95 58 245 150 333 205 88 54 165 96 170 93 6 -3 38 -28
73 -55z m-6234 -64 c31 -65 103 -217 160 -338 l104 -220 -61 -57 c-34 -32 -65
-57 -68 -58 -3 0 -96 58 -207 129 -111 72 -202 128 -202 125 0 -2 47 -101 104
-219 l104 -215 -65 -60 c-36 -33 -71 -57 -77 -53 -23 13 -415 269 -515 336
l-103 69 63 64 c35 35 66 64 69 64 3 0 93 -63 200 -139 107 -77 196 -138 198
-137 1 2 -46 103 -105 226 l-107 222 54 49 c30 27 57 49 61 49 3 0 97 -60 210
-134 112 -73 205 -132 206 -131 2 0 -48 99 -111 218 l-113 217 66 55 c36 30
69 55 73 55 3 0 32 -53 62 -117z m6972 -722 l-56 -56 -75 75 -75 75 -203 -203
-202 -202 -63 63 c-34 34 -62 66 -62 70 0 4 91 97 203 207 l202 199 -75 75
-74 76 54 56 55 56 213 -218 213 -218 -55 -55z m249 -192 l58 -72 -43 -36
c-153 -128 -515 -421 -520 -421 -9 0 -103 121 -104 135 -1 8 533 458 550 464
1 1 28 -31 59 -70z m-7565 -200 c0 -5 -84 -112 -115 -147 -1 -1 -32 9 -68 23
l-66 25 -81 -100 c-44 -54 -80 -102 -80 -107 0 -4 16 -34 36 -66 l35 -57 -59
-75 -59 -74 -89 152 c-187 322 -296 510 -301 523 -2 7 20 44 51 82 l55 70 370
-121 c204 -67 371 -124 371 -128z m7820 -255 c73 -33 155 -116 196 -199 26
-55 29 -69 29 -165 0 -95 -3 -110 -28 -163 -71 -144 -243 -241 -396 -223 -248
29 -412 323 -307 552 46 100 164 194 283 224 60 15 157 4 223 -26z m-8947
-100 c18 -9 159 -88 314 -176 l283 -160 -38 -70 c-20 -38 -46 -73 -57 -77 -11
-4 -129 -18 -262 -31 -134 -13 -243 -26 -243 -29 0 -4 81 -50 180 -104 99 -54
182 -102 184 -105 2 -4 -15 -42 -38 -84 l-42 -76 -314 175 c-173 96 -317 177
-319 179 -1 1 15 36 38 77 l41 75 58 6 c168 17 448 48 456 50 5 1 -75 49 -177
105 -103 57 -187 106 -187 109 0 7 84 152 88 152 2 0 17 -7 35 -16z m9444
-755 l31 -80 -150 -215 c-83 -119 -148 -217 -147 -219 2 -2 89 28 194 66 104
38 194 68 199 66 5 -2 22 -39 37 -84 l27 -80 -32 -11 c-17 -6 -166 -58 -330
-116 -165 -58 -304 -106 -310 -106 -6 0 -24 36 -40 79 l-28 80 151 216 c83
118 151 218 151 221 0 3 -4 2 -10 -1 -5 -3 -95 -37 -200 -74 -187 -67 -191
-68 -199 -47 -36 95 -53 147 -50 149 2 2 85 32 184 67 99 35 243 87 320 116
77 29 147 53 156 53 10 1 25 -25 46 -80z"/>
<path d="M6756 11452 c-6 -39 -46 -378 -46 -391 0 -14 129 -22 169 -11 84 22
151 146 137 253 -15 113 -75 165 -208 181 l-46 5 -6 -37z"/>
<path d="M9181 10355 c-51 -35 -98 -68 -103 -73 -6 -6 15 -29 57 -62 36 -29
67 -51 69 -49 9 11 84 249 78 248 -4 0 -49 -29 -101 -64z"/>
<path d="M2200 9444 c0 -6 122 -197 135 -212 9 -10 22 1 64 55 l52 67 -33 12
c-18 7 -75 28 -125 47 -51 19 -93 33 -93 31z"/>
<path d="M10451 8978 c-99 -38 -171 -133 -171 -224 1 -71 63 -150 136 -174 97
-32 259 47 300 147 24 57 18 133 -15 185 -53 83 -144 107 -250 66z"/>
<path d="M8398 8583 c18 -2 45 -2 60 0 15 2 0 4 -33 4 -33 0 -45 -2 -27 -4z"/>
<path d="M8615 8110 c0 -250 1 -353 2 -227 2 125 2 329 0 455 -1 125 -2 22 -2
-228z"/>
<path d="M8213 8393 c31 -2 83 -2 115 0 31 2 5 3 -58 3 -63 0 -89 -1 -57 -3z"/>
<path d="M8253 8293 c9 -2 25 -2 35 0 9 3 1 5 -18 5 -19 0 -27 -2 -17 -5z"/>
<path d="M5975 7593 c-358 -156 -1097 -480 -1370 -600 -132 -58 -244 -109
-248 -113 -4 -4 79 -48 185 -97 518 -243 671 -316 1161 -560 291 -145 533
-263 539 -263 6 0 218 102 472 226 510 251 962 468 995 479 l21 6 0 -300 c0
-290 -1 -301 -20 -311 -28 -15 -50 -62 -50 -107 0 -40 30 -100 55 -109 23 -9
19 -67 -6 -90 -49 -45 -59 -84 -84 -347 -14 -139 -25 -260 -25 -269 0 -15 9
-18 49 -18 l49 0 9 108 10 107 1 -107 2 -108 72 0 71 0 -6 118 c-3 64 -2 106
3 92 4 -14 8 -53 9 -86 1 -34 4 -76 7 -93 6 -30 9 -31 55 -31 37 0 49 4 49 15
0 8 -11 128 -25 267 -27 263 -41 323 -84 350 -26 16 -30 82 -6 92 24 9 55 68
55 104 0 45 -28 101 -57 115 l-23 10 2 329 3 329 142 68 c79 37 145 70 148 73
3 3 -115 58 -262 123 -148 65 -425 187 -618 273 -575 254 -995 432 -1018 431
-12 -1 -130 -48 -262 -106z"/>
<path d="M8613 7605 c0 -22 2 -30 4 -17 2 12 2 30 0 40 -3 9 -5 -1 -4 -23z"/>
<path d="M8611 7544 c0 -11 3 -14 6 -6 3 7 2 16 -1 19 -3 4 -6 -2 -5 -13z"/>
<path d="M8613 7295 c0 -22 2 -30 4 -17 2 12 2 30 0 40 -3 9 -5 -1 -4 -23z"/>
<path d="M5050 6337 c-1 -28 -3 -212 -6 -408 -6 -411 -19 -360 114 -447 197
-129 476 -230 792 -289 117 -21 435 -24 555 -4 341 55 675 182 888 337 l47 34
0 415 0 414 -107 -52 c-60 -28 -328 -161 -596 -294 -269 -134 -491 -243 -494
-243 -3 0 -263 129 -577 286 -314 157 -581 290 -593 295 -22 8 -23 6 -23 -44z"/>
<path d="M3145 3158 c-240 -36 -570 -111 -744 -168 -111 -36 -257 -103 -287
-131 l-21 -20 42 -165 c23 -90 41 -164 40 -164 -20 0 -482 -89 -600 -115 -145
-33 -405 -102 -413 -110 -2 -1 48 -31 110 -65 62 -34 226 -125 363 -202 l251
-140 -183 -364 c-101 -200 -183 -368 -183 -373 0 -5 33 2 73 14 272 87 879
221 1308 290 l107 18 -13 48 c-7 27 -9 51 -5 54 18 11 388 96 609 140 1805
356 3992 320 5720 -96 l173 -41 -6 -38 c-3 -21 -9 -45 -12 -53 -4 -12 5 -17
43 -22 351 -50 1025 -197 1346 -294 53 -16 97 -27 97 -25 0 2 -81 166 -180
365 -100 199 -179 367 -177 373 4 11 76 53 490 282 125 70 226 128 225 129 -2
2 -68 21 -148 44 -163 45 -381 93 -669 146 -107 19 -196 37 -197 38 -1 1 17
74 41 162 51 189 55 176 -80 240 -179 85 -465 162 -843 225 -101 17 -191 30
-199 28 -9 -2 32 -37 98 -82 218 -151 369 -260 365 -263 -2 -2 -39 5 -82 16
-524 133 -1449 253 -2304 300 -1535 85 -3327 -35 -4404 -295 -55 -13 -101 -22
-103 -21 -3 4 125 98 317 232 85 59 157 110 159 112 7 5 -61 1 -124 -9z m4113
-354 l82 -6 0 -46 0 -45 -125 5 -125 5 0 -67 c0 -81 -1 -80 116 -80 l84 0 0
-48 0 -49 -104 5 -103 4 -7 -109 -7 -110 -52 5 c-29 2 -53 5 -54 6 -4 3 19
521 23 535 4 13 7 13 272 -5z m-1914 -166 l-87 -173 7 -107 6 -108 -53 0 -54
0 -7 61 c-3 34 -6 79 -6 100 0 32 -18 66 -109 203 -80 122 -104 166 -94 170 8
4 36 6 63 6 l49 0 66 -110 c36 -60 69 -110 71 -110 5 0 31 54 90 187 l23 53
61 0 60 0 -86 -172z m2674 13 l-4 -60 49 -6 c44 -6 48 -9 43 -29 -3 -11 -6
-29 -6 -40 0 -17 -5 -18 -50 -12 l-50 7 -1 -33 c0 -18 -4 -66 -8 -107 -6 -66
-5 -77 12 -94 12 -12 28 -17 43 -14 24 4 25 2 22 -37 l-3 -41 -62 0 c-55 0
-66 4 -90 28 -32 31 -35 71 -20 225 l8 82 -25 0 c-24 0 -26 4 -26 40 0 38 2
40 29 40 28 0 30 2 36 55 l7 55 50 0 50 0 -4 -59z m-1360 -16 l3 -50 -46 0
c-39 0 -51 -5 -71 -28 -23 -26 -24 -35 -24 -153 l0 -124 -50 0 -50 0 0 200 0
200 50 0 c48 0 50 -1 50 -27 l0 -26 23 21 c27 26 65 42 92 39 17 -2 20 -10 23
-52z m-920 24 c60 -30 95 -84 100 -160 6 -84 -4 -125 -44 -169 -95 -105 -273
-88 -336 33 -30 58 -30 156 0 214 21 41 59 74 103 92 44 18 130 12 177 -10z
m294 19 c0 -2 4 -68 7 -147 6 -141 7 -144 32 -164 24 -17 31 -18 63 -7 20 6
41 20 46 30 6 10 10 80 10 154 l0 136 50 0 50 0 2 -150 c1 -82 2 -171 3 -197
l0 -48 -47 -3 c-43 -3 -48 -1 -48 17 0 26 -1 26 -46 -4 -43 -30 -100 -33 -150
-9 -57 27 -67 59 -72 237 l-5 157 52 0 c28 0 52 -1 53 -2z m-2158 -39 c13 -66
15 -64 -106 -83 -61 -9 -114 -18 -116 -21 -5 -4 15 -125 22 -132 2 -2 46 3 97
11 51 8 95 13 98 11 2 -3 5 -24 5 -47 l1 -42 -89 -13 c-49 -7 -92 -15 -95 -18
-3 -3 2 -53 10 -110 17 -117 21 -107 -53 -119 -34 -6 -37 -5 -42 21 -9 45 -76
490 -76 506 0 10 41 20 163 39 89 14 165 26 168 27 4 0 9 -13 13 -30z m3642
-46 c-3 -27 -8 -92 -12 -146 -8 -115 3 -137 65 -137 65 0 78 18 85 117 4 49 9
112 13 141 l5 52 49 0 c49 0 49 0 49 -32 0 -24 -26 -340 -30 -365 0 -2 -20 -3
-45 -3 -42 0 -45 2 -45 26 l0 25 -29 -20 c-46 -33 -102 -37 -154 -12 -72 35
-78 61 -63 274 l8 127 55 0 55 0 -6 -47z m-2836 8 c0 -10 3 -32 6 -48 6 -29 4
-30 -37 -36 -83 -11 -91 -35 -75 -218 l8 -96 -48 -7 c-26 -3 -48 -5 -50 -4 -3
4 -43 392 -41 394 1 1 23 4 50 7 45 6 47 6 47 -18 0 -28 15 -34 24 -10 7 21
66 55 94 55 15 0 22 -6 22 -19z m-403 -67 c92 -53 123 -208 60 -303 -63 -94
-211 -117 -297 -45 -108 92 -95 289 23 351 72 37 145 36 214 -3z m4012 20 c2
-2 -3 -65 -13 -140 -15 -124 -15 -139 -1 -160 12 -19 24 -24 59 -24 65 0 74
16 94 171 l18 134 44 -3 c25 -2 48 -7 51 -10 3 -4 -5 -94 -19 -199 l-26 -193
-25 0 c-47 0 -71 11 -71 32 0 20 -1 20 -27 2 -40 -26 -120 -24 -160 4 -59 42
-62 77 -32 310 l12 94 46 -7 c25 -4 48 -9 50 -11z m464 -64 c4 0 4 -12 1 -27
l-7 -27 32 24 c30 21 102 32 117 18 3 -3 0 -26 -7 -51 -11 -44 -12 -45 -42
-40 -47 7 -86 -12 -101 -49 -7 -18 -19 -80 -26 -137 l-14 -103 -50 7 c-28 3
-51 7 -52 8 -1 1 9 72 22 157 12 85 26 173 29 196 l6 41 42 -8 c23 -4 45 -8
50 -9z m455 -78 c50 -36 67 -76 66 -160 -1 -40 -4 -75 -7 -78 -3 -4 -57 3
-120 15 -150 28 -151 28 -143 -6 4 -16 21 -41 38 -57 30 -27 35 -28 99 -23 63
5 67 4 73 -16 3 -12 6 -27 6 -33 0 -19 -49 -34 -108 -34 -177 1 -263 161 -174
325 38 71 87 97 172 93 49 -3 74 -9 98 -26z"/>
<path d="M5605 2591 c-40 -17 -59 -50 -62 -109 -3 -45 0 -64 16 -90 37 -58
105 -65 152 -16 33 35 38 126 10 172 -29 45 -72 61 -116 43z"/>
<path d="M4105 2457 c-51 -43 -43 -163 12 -207 83 -65 174 24 143 140 -23 85
-97 117 -155 67z"/>
<path d="M9074 2360 c-23 -9 -54 -47 -54 -65 0 -6 36 -18 80 -26 l80 -16 0 33
c0 57 -55 96 -106 74z"/>
<path d="M3387 3083 c7 -50 13 -55 52 -47 l32 7 -37 38 c-21 22 -41 39 -45 39
-4 0 -5 -17 -2 -37z"/>
<path d="M9046 3081 l-37 -38 32 -7 c18 -3 33 -5 35 -3 7 7 21 87 15 87 -4 0
-24 -17 -45 -39z"/>
<path d="M5600 1859 c-765 -33 -1490 -120 -2100 -253 -264 -57 -400 -89 -400
-96 0 -9 197 -133 350 -221 515 -295 1129 -531 1700 -653 1064 -226 2203 -109
3240 334 175 74 494 233 645 320 182 104 347 212 338 220 -10 10 -348 90 -528
125 -821 162 -1675 237 -2655 233 -228 0 -494 -4 -590 -9z"/>
</g>
</svg>
